<svg width="301" height="268" viewBox="0 0 301 268" fill="none" xmlns="http://www.w3.org/2000/svg">
<path d="M144.597 24V21.256H137.429C136.533 21.256 135.609 21.424 134.741 21.648L140.005 16.328C142.077 14.256 144.233 12.044 144.233 8.908C144.233 5.156 141.377 3.084 137.905 3.084C134.069 3.084 131.493 5.296 130.961 8.992L134.041 9.552C133.873 7.34 135.525 5.716 137.737 5.716C141.713 5.716 141.545 9.636 140.145 12.156C139.417 13.304 138.521 14.256 137.569 15.208L130.597 22.208V24H144.597ZM165.449 12.744H160.689V14.536H165.449V15.628H168.333V0.871999H165.449V12.744ZM155.453 8.88C159.205 8.88 161.725 7.424 161.725 5.1C161.725 2.776 159.205 1.32 155.453 1.32C151.645 1.32 149.153 2.776 149.153 5.1C149.153 7.424 151.645 8.88 155.453 8.88ZM155.453 3.252C157.609 3.252 159.009 3.896 159.009 5.1C159.009 6.304 157.609 6.948 155.453 6.948C153.213 6.948 151.869 6.304 151.869 5.1C151.869 3.896 153.213 3.252 155.453 3.252ZM153.857 12.1V15.712H156.769V11.988C159.121 11.876 161.501 11.68 163.853 11.344L163.657 9.524C158.281 10.056 152.205 10.112 147.333 10.112L147.669 12.184C149.573 12.184 151.617 12.184 153.857 12.1ZM169.061 23.888H153.969V22.04H168.333V16.524H151.057V18.512H165.477V20.192H151.113V25.932H169.061V23.888Z" fill="#222222"/>
<rect y="141" width="43" height="60" fill="white"/>
<rect y="48" width="43" height="60" fill="white"/>
<rect x="43" y="48" width="43" height="60" fill="white"/>
<rect x="86" y="48" width="43" height="60" fill="white"/>
<rect x="129" y="48" width="43" height="60" fill="white"/>
<rect x="172" y="48" width="43" height="60" fill="white"/>
<rect x="215" y="48" width="43" height="60" fill="white"/>
<rect x="258" y="48" width="43" height="60" fill="white"/>
<rect y="108" width="43" height="32" fill="white"/>
<rect x="43" y="108" width="43" height="32" fill="white"/>
<rect x="86" y="108" width="43" height="32" fill="white"/>
<rect x="129" y="108" width="43" height="32" fill="white"/>
<rect x="172" y="108" width="43" height="32" fill="white"/>
<rect x="258" y="108" width="43" height="32" fill="white"/>
<rect x="215" y="108" width="43" height="32" fill="white"/>
<rect y="140" width="43" height="32" fill="white"/>
<rect x="43" y="140" width="43" height="32" fill="white"/>
<rect x="86" y="140" width="43" height="32" fill="white"/>
<rect x="129" y="140" width="43" height="32" fill="white"/>
<rect x="172" y="140" width="43" height="32" fill="white"/>
<rect x="215" y="140" width="43" height="32" fill="white"/>
<rect x="258" y="140" width="43" height="32" fill="white"/>
<rect y="172" width="43" height="32" fill="white"/>
<rect x="43" y="172" width="43" height="32" fill="white"/>
<rect x="86" y="172" width="43" height="32" fill="white"/>
<rect x="129" y="172" width="43" height="32" fill="white"/>
<rect x="172" y="172" width="43" height="32" fill="white"/>
<rect x="215" y="172" width="43" height="32" fill="white"/>
<rect x="258" y="172" width="43" height="32" fill="white"/>
<rect y="204" width="43" height="32" fill="white"/>
<rect x="43" y="204" width="43" height="32" fill="white"/>
<rect x="86" y="204" width="43" height="32" fill="white"/>
<rect x="129" y="204" width="43" height="32" fill="white"/>
<rect x="172" y="204" width="43" height="32" fill="white"/>
<rect x="215" y="204" width="43" height="32" fill="white"/>
<rect x="258" y="204" width="43" height="32" fill="white"/>
<rect y="236" width="43" height="32" fill="white"/>
<rect x="43" y="236" width="43" height="32" fill="white"/>
<rect x="86" y="236" width="43" height="32" fill="white"/>
<rect x="129" y="236" width="43" height="32" fill="white"/>
<rect x="172" y="236" width="43" height="32" fill="white"/>
<rect x="215" y="236" width="43" height="32" fill="white"/>
<rect x="258" y="236" width="43" height="32" fill="white"/>
<path d="M68.4206 70.848V77.664H65.5726V78.528H68.4206V79.28H69.7326V70.848H68.4206ZM62.5806 75.408C63.114 75.408 63.594 75.36 64.0206 75.264C64.458 75.168 64.8313 75.0293 65.1406 74.848C65.45 74.656 65.69 74.432 65.8606 74.176C66.0313 73.9093 66.1166 73.6107 66.1166 73.28C66.1166 72.9387 66.0313 72.6347 65.8606 72.368C65.69 72.1013 65.45 71.8773 65.1406 71.696C64.8313 71.5147 64.458 71.376 64.0206 71.28C63.594 71.1733 63.114 71.12 62.5806 71.12C62.058 71.12 61.578 71.1733 61.1406 71.28C60.7033 71.376 60.33 71.5147 60.0206 71.696C59.7113 71.8773 59.4713 72.1013 59.3006 72.368C59.13 72.6347 59.0446 72.9387 59.0446 73.28C59.0446 73.6107 59.13 73.9093 59.3006 74.176C59.4713 74.432 59.7113 74.656 60.0206 74.848C60.33 75.0293 60.7033 75.168 61.1406 75.264C61.578 75.36 62.058 75.408 62.5806 75.408ZM62.5806 72.032C63.2846 72.032 63.8446 72.144 64.2606 72.368C64.6766 72.592 64.8846 72.896 64.8846 73.28C64.8846 73.6533 64.6766 73.952 64.2606 74.176C63.8446 74.4 63.2846 74.512 62.5806 74.512C61.8766 74.512 61.3166 74.4 60.9006 74.176C60.4846 73.952 60.2766 73.6533 60.2766 73.28C60.2766 72.896 60.4846 72.592 60.9006 72.368C61.3166 72.144 61.8766 72.032 62.5806 72.032ZM61.8446 77.184V79.328H63.1566V77.12C63.8606 77.0773 64.5593 77.0293 65.2526 76.976C65.9566 76.912 66.6606 76.832 67.3646 76.736L67.2846 75.872C66.5166 75.9573 65.7273 76.0267 64.9166 76.08C64.106 76.1227 63.3006 76.16 62.5006 76.192C61.7006 76.2133 60.9113 76.2293 60.1326 76.24C59.3646 76.24 58.634 76.24 57.9406 76.24L58.1006 77.232C59.274 77.232 60.522 77.216 61.8446 77.184ZM70.2286 85.024V84.064H61.4446V82.8H69.7326V79.808H60.1166V80.752H68.4526V81.904H60.1486V85.024H70.2286Z" fill="#222222"/>
<path d="M112.045 78.032H114.285V76.928H112.045V70.832H110.733V85.184H112.045V78.032ZM101.069 73.616H109.645V72.576H106.029V70.848H104.717V72.576H101.069V73.616ZM106.029 81.264V79.744C106.861 79.6373 107.522 79.3547 108.013 78.896C108.514 78.4267 108.765 77.8347 108.765 77.12C108.765 76.7147 108.679 76.352 108.509 76.032C108.349 75.7013 108.119 75.4187 107.821 75.184C107.522 74.9493 107.165 74.7733 106.749 74.656C106.333 74.528 105.874 74.464 105.373 74.464C104.871 74.464 104.413 74.528 103.997 74.656C103.581 74.7733 103.223 74.9493 102.925 75.184C102.626 75.4187 102.391 75.7013 102.221 76.032C102.061 76.352 101.981 76.7147 101.981 77.12C101.981 77.8347 102.226 78.4267 102.717 78.896C103.218 79.3547 103.885 79.6373 104.717 79.744V81.312C104.013 81.3333 103.33 81.3493 102.669 81.36C102.018 81.36 101.405 81.36 100.829 81.36L101.005 82.464C101.634 82.464 102.311 82.464 103.037 82.464C103.762 82.4533 104.509 82.432 105.277 82.4C106.045 82.3573 106.823 82.2987 107.613 82.224C108.413 82.1387 109.197 82.0267 109.965 81.888L109.885 80.912C109.266 81.008 108.631 81.0827 107.981 81.136C107.33 81.1893 106.679 81.232 106.029 81.264ZM103.229 77.12C103.229 76.608 103.426 76.208 103.821 75.92C104.215 75.6213 104.733 75.472 105.373 75.472C106.013 75.472 106.53 75.6213 106.925 75.92C107.319 76.208 107.517 76.608 107.517 77.12C107.517 77.632 107.319 78.032 106.925 78.32C106.53 78.608 106.013 78.752 105.373 78.752C104.733 78.752 104.215 78.608 103.821 78.32C103.426 78.032 103.229 77.632 103.229 77.12Z" fill="#222222"/>
<path d="M155.797 77.36L156.341 76.304C155.69 76.208 155.055 76.032 154.437 75.776C153.818 75.52 153.263 75.2053 152.773 74.832C152.293 74.4587 151.903 74.0427 151.605 73.584C151.317 73.1253 151.173 72.6453 151.173 72.144V71.344H149.797V72.144C149.797 72.656 149.653 73.1467 149.365 73.616C149.077 74.0747 148.693 74.4907 148.213 74.864C147.733 75.2267 147.183 75.536 146.565 75.792C145.957 76.0373 145.322 76.208 144.661 76.304L145.189 77.36C145.743 77.264 146.287 77.12 146.821 76.928C147.365 76.7253 147.866 76.48 148.325 76.192C148.794 75.904 149.215 75.5787 149.589 75.216C149.962 74.8427 150.261 74.4373 150.485 74C150.719 74.4373 151.023 74.8427 151.397 75.216C151.77 75.5787 152.186 75.904 152.645 76.192C153.114 76.48 153.615 76.7253 154.149 76.928C154.693 77.12 155.242 77.264 155.797 77.36ZM151.109 80H156.981L156.965 78.912H144.005V80H149.797V85.2H151.109V80Z" fill="#222222"/>
<path d="M199.965 79.168V78.112H194.141V76.288H198.301V71.424H188.653V76.288H192.829V78.112H186.973V79.168H199.965ZM197.005 75.248H189.933V72.464H197.005V75.248ZM198.365 80.656H188.429V81.712H197.053V85.2H198.365V80.656Z" fill="#222222"/>
<path d="M243.013 77.936V76.88H240.949C241.141 75.9733 241.253 75.184 241.285 74.512C241.317 73.84 241.333 73.2213 241.333 72.656V71.6H231.637V72.656H240.037C240.037 73.2213 240.015 73.8453 239.973 74.528C239.941 75.2 239.823 75.984 239.621 76.88H229.973V77.936H243.013ZM241.381 79.888H231.589V84.992H241.381V79.888ZM240.085 83.936H232.869V80.944H240.085V83.936Z" fill="#222222"/>
<path d="M286.013 83.408V82.32H280.141V79.36H284.525V78.288H275.981V76.128H284.061V75.088H275.981V73.072H284.381V72H274.653V79.36H278.829V82.32H272.973V83.408H286.013Z" fill="#222222"/>
<path d="M25.4526 78.192H26.7646V70.832H25.4526V78.192ZM22.7326 74.544C22.7326 74.064 22.6366 73.632 22.4446 73.248C22.2633 72.8533 22.0073 72.5173 21.6766 72.24C21.346 71.952 20.9513 71.7333 20.4926 71.584C20.0446 71.424 19.554 71.344 19.0206 71.344C18.4873 71.344 17.9913 71.424 17.5326 71.584C17.0846 71.7333 16.6953 71.952 16.3646 72.24C16.0446 72.5173 15.7886 72.8533 15.5966 73.248C15.4153 73.632 15.3246 74.064 15.3246 74.544C15.3246 75.0133 15.4153 75.4453 15.5966 75.84C15.7886 76.224 16.0446 76.5547 16.3646 76.832C16.6953 77.1093 17.0846 77.328 17.5326 77.488C17.9913 77.6373 18.4873 77.712 19.0206 77.712C19.554 77.712 20.0446 77.6373 20.4926 77.488C20.9513 77.328 21.346 77.1093 21.6766 76.832C22.0073 76.5547 22.2633 76.224 22.4446 75.84C22.6366 75.4453 22.7326 75.0133 22.7326 74.544ZM16.5886 74.544C16.5886 74.2347 16.6473 73.952 16.7646 73.696C16.8926 73.4293 17.0633 73.2053 17.2766 73.024C17.5006 72.832 17.7566 72.6827 18.0446 72.576C18.3433 72.4693 18.6686 72.416 19.0206 72.416C19.3726 72.416 19.698 72.4693 19.9966 72.576C20.2953 72.6827 20.5513 72.832 20.7646 73.024C20.978 73.2053 21.1433 73.4293 21.2606 73.696C21.3886 73.952 21.4526 74.2347 21.4526 74.544C21.4526 74.8427 21.3886 75.1253 21.2606 75.392C21.1433 75.648 20.978 75.872 20.7646 76.064C20.5513 76.2453 20.2953 76.3893 19.9966 76.496C19.698 76.6027 19.3726 76.656 19.0206 76.656C18.6686 76.656 18.3433 76.6027 18.0446 76.496C17.7566 76.3893 17.5006 76.2453 17.2766 76.064C17.0633 75.872 16.8926 75.648 16.7646 75.392C16.6473 75.1253 16.5886 74.8427 16.5886 74.544ZM27.2446 84.992V83.952H18.7966V82.368H26.7646V78.896H17.4686V79.936H25.4686V81.392H17.5006V84.992H27.2446Z" fill="#D62A2A"/>
<circle cx="280" cy="124" r="16" fill="#FFE7E7"/>
<path d="M154.15 130V128.816H151.846V118.208H150.678L147.526 120.928L148.31 121.872L150.438 119.968C150.428 120.021 150.422 120.08 150.422 120.144V128.816H147.814V130H154.15Z" fill="black"/>
<path d="M197.454 130V128.704H192.83C192.628 128.704 192.409 128.72 192.174 128.752C191.95 128.784 191.726 128.832 191.502 128.896L194.782 125.648C195.113 125.317 195.428 124.992 195.726 124.672C196.025 124.341 196.286 124.005 196.51 123.664C196.734 123.312 196.91 122.949 197.038 122.576C197.166 122.203 197.23 121.797 197.23 121.36C197.23 120.837 197.14 120.373 196.958 119.968C196.777 119.563 196.526 119.221 196.206 118.944C195.886 118.656 195.508 118.437 195.07 118.288C194.644 118.139 194.18 118.064 193.678 118.064C193.177 118.064 192.708 118.139 192.27 118.288C191.833 118.427 191.444 118.64 191.102 118.928C190.772 119.205 190.494 119.552 190.27 119.968C190.046 120.373 189.897 120.848 189.822 121.392L191.262 121.632C191.262 121.291 191.321 120.981 191.438 120.704C191.556 120.427 191.716 120.187 191.918 119.984C192.132 119.771 192.382 119.611 192.67 119.504C192.958 119.387 193.268 119.328 193.598 119.328C194.206 119.328 194.713 119.499 195.118 119.84C195.524 120.171 195.737 120.688 195.758 121.392C195.758 121.733 195.705 122.059 195.598 122.368C195.492 122.667 195.342 122.965 195.15 123.264C194.969 123.563 194.745 123.861 194.478 124.16C194.222 124.448 193.94 124.757 193.63 125.088L189.582 128.976V130H197.454Z" fill="black"/>
<path d="M235.37 121.424L236.826 121.664C236.826 120.352 237.802 119.36 239.146 119.36C240.378 119.36 241.242 120.016 241.242 121.36C241.242 122.576 240.506 123.424 238.442 123.472V124.528C240.954 124.528 241.482 125.456 241.482 126.72C241.482 127.76 240.666 128.944 238.986 128.944C237.77 128.944 237.05 128.32 236.554 127.296C236.426 126.992 236.346 126.752 236.314 126.576L235.002 127.12C235.562 128.848 236.474 130.208 239.002 130.208C241.194 130.208 242.97 128.832 242.97 126.688C242.97 125.216 242.17 124.24 240.634 123.856C241.914 123.424 242.698 122.656 242.698 121.12C242.698 119.328 241.258 118.08 239.226 118.08C237.226 118.08 235.674 119.296 235.37 121.424Z" fill="black"/>
<path d="M19.2904 154.64L19.8184 151.568H24.4104V150.224H18.7944L17.8344 155.776L18.7784 156.048C19.4664 155.808 20.0744 155.664 20.6984 155.664C22.3784 155.664 23.3704 156.56 23.3704 158.096C23.3704 159.824 22.2024 160.832 20.5864 160.832C19.6264 160.832 18.6984 160.4 17.9944 159.808L17.2104 160.88C17.9304 161.568 19.1144 162.144 20.5224 162.144C22.9064 162.144 24.7784 160.512 24.7784 158.016C24.7784 155.968 23.4504 154.432 20.9704 154.432C20.3944 154.432 19.8344 154.496 19.2904 154.64Z" fill="#D62A2A"/>
<path d="M151.714 155.888C152.994 155.424 153.634 154.496 153.634 153.136C153.634 151.408 152.146 149.984 150.002 149.984C147.778 149.984 146.37 151.408 146.37 153.136C146.37 154.48 147.042 155.424 148.258 155.888C146.786 156.288 145.938 157.312 145.938 158.848C145.938 160.944 147.602 162.272 150.002 162.272C152.37 162.272 154.034 160.944 154.034 158.848C154.034 157.312 153.202 156.288 151.714 155.888ZM150.002 151.152C151.442 151.152 152.146 152.064 152.146 153.184C152.146 154.256 151.586 155.328 150.002 155.328C148.386 155.328 147.826 154.256 147.826 153.184C147.826 152.064 148.53 151.152 150.002 151.152ZM150.002 161.072C148.402 161.072 147.49 160.176 147.49 158.832C147.49 157.184 148.658 156.496 150.002 156.496C151.33 156.496 152.482 157.184 152.482 158.832C152.482 160.176 151.602 161.072 150.002 161.072Z" fill="black"/>
<path d="M63.0904 154.64L66.6264 150.208H64.7864L61.5224 154.608C60.4984 155.952 60.0664 157.136 60.0664 158.176C60.0664 160.608 61.6184 162.208 64.0024 162.208C66.4024 162.208 68.0664 160.512 68.0664 158.336C68.0664 156.08 66.4664 154.8 64.5464 154.8C63.7624 154.8 63.1064 155.024 62.5304 155.408C62.6424 155.28 62.8184 155.024 63.0904 154.64ZM63.9704 160.976C62.3704 160.976 61.4904 159.952 61.4904 158.416C61.4904 157.088 62.4984 155.936 64.0664 155.936C65.5224 155.936 66.5944 156.896 66.5944 158.448C66.5944 159.904 65.5224 160.976 63.9704 160.976Z" fill="black"/>
<path d="M194.074 157.344L190.426 162H192.266L195.482 157.568C196.378 156.336 196.89 155.264 196.89 153.872C196.89 151.584 195.37 149.984 193.066 149.984C190.73 149.984 189.082 151.664 189.082 153.76C189.082 155.984 190.618 157.2 192.458 157.2C193.338 157.2 194.09 156.944 194.714 156.448C194.602 156.592 194.41 156.896 194.074 157.344ZM190.57 153.648C190.57 152.224 191.562 151.248 193.05 151.248C194.426 151.248 195.466 152.16 195.466 153.696C195.466 154.928 194.538 156.048 192.938 156.048C191.466 156.048 190.57 155.2 190.57 153.648Z" fill="black"/>
<path d="M111.05 150.272H103.338V151.52H109.466L108.922 152.416L104.138 162H105.754L111.05 151.216V150.272Z" fill="black"/>
<path d="M234.885 160.816H232.581V150.208H231.413L228.261 152.928L229.045 153.872L231.173 151.968C231.157 152.08 231.157 152.224 231.157 152.368V160.816H228.549V162H234.885V160.816ZM245.104 156.16C245.104 151.984 243.216 150.08 240.8 150.08C238.368 150.08 236.496 151.984 236.496 156.16C236.496 160.32 238.368 162.224 240.8 162.224C243.216 162.224 245.104 160.32 245.104 156.16ZM243.632 156.16C243.632 159.808 242.288 161.04 240.8 161.04C239.312 161.04 237.984 159.808 237.984 156.16C237.984 152.496 239.312 151.28 240.8 151.28C242.288 151.28 243.632 152.496 243.632 156.16Z" fill="black"/>
<path d="M278.885 160.816H276.581V150.208H275.413L272.261 152.928L273.045 153.872L275.173 151.968C275.157 152.08 275.157 152.224 275.157 152.368V160.816H272.549V162H278.885V160.816ZM288.416 160.816H286.112V150.208H284.944L281.792 152.928L282.576 153.872L284.704 151.968C284.688 152.08 284.688 152.224 284.688 152.368V160.816H282.08V162H288.416V160.816Z" fill="black"/>
<path d="M20.8848 192.816H18.5808V182.208H17.4128L14.2608 184.928L15.0448 185.872L17.1727 183.968C17.1568 184.08 17.1568 184.224 17.1568 184.368V192.816H14.5488V194H20.8848V192.816ZM30.72 192.704H26.096C25.696 192.704 25.216 192.768 24.768 192.896L28.048 189.648C29.376 188.32 30.496 187.104 30.496 185.36C30.496 183.28 28.944 182.064 26.944 182.064C24.944 182.064 23.392 183.232 23.088 185.392L24.528 185.632C24.528 184.288 25.52 183.328 26.864 183.328C28.08 183.328 28.976 183.984 29.024 185.392C29.024 186.768 28.128 187.776 26.896 189.088L22.848 192.976V194H30.72V192.704Z" fill="#D62A2A"/>
<path d="M149.885 192.816H147.581V182.208H146.413L143.261 184.928L144.045 185.872L146.173 183.968C146.157 184.08 146.157 184.224 146.157 184.368V192.816H143.549V194H149.885V192.816ZM154.056 186.64L154.584 183.568H159.176V182.224H153.56L152.6 187.776L153.544 188.048C154.232 187.808 154.84 187.664 155.464 187.664C157.144 187.664 158.136 188.56 158.136 190.096C158.136 191.824 156.968 192.832 155.352 192.832C154.392 192.832 153.464 192.4 152.76 191.808L151.976 192.88C152.696 193.568 153.88 194.144 155.288 194.144C157.672 194.144 159.544 192.512 159.544 190.016C159.544 187.968 158.216 186.432 155.736 186.432C155.16 186.432 154.6 186.496 154.056 186.64Z" fill="black"/>
<path d="M63.8848 192.816H61.5808V182.208H60.4128L57.2608 184.928L58.0448 185.872L60.1727 183.968C60.1568 184.08 60.1568 184.224 60.1568 184.368V192.816H57.5488V194H63.8848V192.816ZM66.136 185.424L67.592 185.664C67.592 184.352 68.568 183.36 69.912 183.36C71.144 183.36 72.008 184.016 72.008 185.36C72.008 186.576 71.272 187.424 69.208 187.472V188.528C71.72 188.528 72.248 189.456 72.248 190.72C72.248 191.76 71.432 192.944 69.752 192.944C68.536 192.944 67.816 192.32 67.32 191.296C67.192 190.992 67.112 190.752 67.08 190.576L65.768 191.12C66.328 192.848 67.24 194.208 69.768 194.208C71.96 194.208 73.736 192.832 73.736 190.688C73.736 189.216 72.936 188.24 71.4 187.856C72.68 187.424 73.464 186.656 73.464 185.12C73.464 183.328 72.024 182.08 69.992 182.08C67.992 182.08 66.44 183.296 66.136 185.424Z" fill="black"/>
<path d="M191.885 192.816H189.581V182.208H188.413L185.261 184.928L186.045 185.872L188.173 183.968C188.157 184.08 188.157 184.224 188.157 184.368V192.816H185.549V194H191.885V192.816ZM196.856 186.64L200.392 182.208H198.552L195.288 186.608C194.264 187.952 193.832 189.136 193.832 190.176C193.832 192.608 195.384 194.208 197.768 194.208C200.168 194.208 201.832 192.512 201.832 190.336C201.832 188.08 200.232 186.8 198.312 186.8C197.528 186.8 196.872 187.024 196.296 187.408C196.408 187.28 196.584 187.024 196.856 186.64ZM197.736 192.976C196.136 192.976 195.256 191.952 195.256 190.416C195.256 189.088 196.264 187.936 197.832 187.936C199.288 187.936 200.36 188.896 200.36 190.448C200.36 191.904 199.288 192.976 197.736 192.976Z" fill="black"/>
<path d="M106.885 192.816H104.581V182.208H103.413L100.261 184.928L101.045 185.872L103.173 183.968C103.157 184.08 103.157 184.224 103.157 184.368V192.816H100.549V194H106.885V192.816ZM117.28 189.728H115.504V182.144H114.128L108.352 189.792V190.88H114.208V194H115.504V190.88H117.28V189.728ZM114.208 189.728H109.952L114.272 183.84C114.224 184.176 114.208 184.56 114.208 184.832V189.728Z" fill="black"/>
<path d="M234.885 192.816H232.581V182.208H231.413L228.261 184.928L229.045 185.872L231.173 183.968C231.157 184.08 231.157 184.224 231.157 184.368V192.816H228.549V194H234.885V192.816ZM244.816 182.272H237.104V183.52H243.232L242.688 184.416L237.904 194H239.52L244.816 183.216V182.272Z" fill="black"/>
<path d="M278.885 192.816H276.581V182.208H275.413L272.261 184.928L273.045 185.872L275.173 183.968C275.157 184.08 275.157 184.224 275.157 184.368V192.816H272.549V194H278.885V192.816ZM286.48 187.888C287.76 187.424 288.4 186.496 288.4 185.136C288.4 183.408 286.912 181.984 284.768 181.984C282.544 181.984 281.136 183.408 281.136 185.136C281.136 186.48 281.808 187.424 283.024 187.888C281.552 188.288 280.704 189.312 280.704 190.848C280.704 192.944 282.368 194.272 284.768 194.272C287.136 194.272 288.8 192.944 288.8 190.848C288.8 189.312 287.968 188.288 286.48 187.888ZM284.768 183.152C286.208 183.152 286.912 184.064 286.912 185.184C286.912 186.256 286.352 187.328 284.768 187.328C283.152 187.328 282.592 186.256 282.592 185.184C282.592 184.064 283.296 183.152 284.768 183.152ZM284.768 193.072C283.168 193.072 282.256 192.176 282.256 190.832C282.256 189.184 283.424 188.496 284.768 188.496C286.096 188.496 287.248 189.184 287.248 190.832C287.248 192.176 286.368 193.072 284.768 193.072Z" fill="black"/>
<path d="M20.8848 224.816H18.5808V214.208H17.4128L14.2608 216.928L15.0448 217.872L17.1727 215.968C17.1568 216.08 17.1568 216.224 17.1568 216.368V224.816H14.5488V226H20.8848V224.816ZM27.84 221.344L24.192 226H26.032L29.248 221.568C30.144 220.336 30.656 219.264 30.656 217.872C30.656 215.584 29.136 213.984 26.832 213.984C24.496 213.984 22.848 215.664 22.848 217.76C22.848 219.984 24.384 221.2 26.224 221.2C27.104 221.2 27.856 220.944 28.48 220.448C28.368 220.592 28.176 220.896 27.84 221.344ZM24.336 217.648C24.336 216.224 25.328 215.248 26.816 215.248C28.192 215.248 29.232 216.16 29.232 217.696C29.232 218.928 28.304 220.048 26.704 220.048C25.232 220.048 24.336 219.2 24.336 217.648Z" fill="#D62A2A"/>
<path d="M21.1888 256.704H16.5648C16.1648 256.704 15.6848 256.768 15.2368 256.896L18.5168 253.648C19.8448 252.32 20.9648 251.104 20.9648 249.36C20.9648 247.28 19.4128 246.064 17.4128 246.064C15.4128 246.064 13.8608 247.232 13.5568 249.392L14.9968 249.632C14.9968 248.288 15.9888 247.328 17.3328 247.328C18.5488 247.328 19.4448 247.984 19.4928 249.392C19.4928 250.768 18.5968 251.776 17.3648 253.088L13.3168 256.976V258H21.1888V256.704ZM25.856 250.64L29.392 246.208H27.552L24.288 250.608C23.264 251.952 22.832 253.136 22.832 254.176C22.832 256.608 24.384 258.208 26.768 258.208C29.168 258.208 30.832 256.512 30.832 254.336C30.832 252.08 29.232 250.8 27.312 250.8C26.528 250.8 25.872 251.024 25.296 251.408C25.408 251.28 25.584 251.024 25.856 250.64ZM26.736 256.976C25.136 256.976 24.256 255.952 24.256 254.416C24.256 253.088 25.264 251.936 26.832 251.936C28.288 251.936 29.36 252.896 29.36 254.448C29.36 255.904 28.288 256.976 26.736 256.976Z" fill="#D62A2A"/>
<path d="M150.189 224.704H145.565C145.165 224.704 144.685 224.768 144.237 224.896L147.517 221.648C148.845 220.32 149.965 219.104 149.965 217.36C149.965 215.28 148.413 214.064 146.413 214.064C144.413 214.064 142.861 215.232 142.557 217.392L143.997 217.632C143.997 216.288 144.989 215.328 146.333 215.328C147.549 215.328 148.445 215.984 148.493 217.392C148.493 218.768 147.597 219.776 146.365 221.088L142.317 224.976V226H150.189V224.704ZM159.72 224.704H155.096C154.696 224.704 154.216 224.768 153.768 224.896L157.048 221.648C158.376 220.32 159.496 219.104 159.496 217.36C159.496 215.28 157.944 214.064 155.944 214.064C153.944 214.064 152.392 215.232 152.088 217.392L153.528 217.632C153.528 216.288 154.52 215.328 155.864 215.328C157.08 215.328 157.976 215.984 158.024 217.392C158.024 218.768 157.128 219.776 155.896 221.088L151.848 224.976V226H159.72V224.704Z" fill="black"/>
<path d="M64.1888 224.704H59.5648C59.1648 224.704 58.6848 224.768 58.2368 224.896L61.5168 221.648C62.8448 220.32 63.9648 219.104 63.9648 217.36C63.9648 215.28 62.4128 214.064 60.4128 214.064C58.4128 214.064 56.8608 215.232 56.5568 217.392L57.9968 217.632C57.9968 216.288 58.9888 215.328 60.3328 215.328C61.5488 215.328 62.4448 215.984 62.4928 217.392C62.4928 218.768 61.5968 219.776 60.3648 221.088L56.3168 224.976V226H64.1888V224.704ZM74.104 220.16C74.104 215.984 72.216 214.08 69.8 214.08C67.368 214.08 65.496 215.984 65.496 220.16C65.496 224.32 67.368 226.224 69.8 226.224C72.216 226.224 74.104 224.32 74.104 220.16ZM72.632 220.16C72.632 223.808 71.288 225.04 69.8 225.04C68.312 225.04 66.984 223.808 66.984 220.16C66.984 216.496 68.312 215.28 69.8 215.28C71.288 215.28 72.632 216.496 72.632 220.16Z" fill="black"/>
<path d="M64.1888 256.704H59.5648C59.1648 256.704 58.6848 256.768 58.2368 256.896L61.5168 253.648C62.8448 252.32 63.9648 251.104 63.9648 249.36C63.9648 247.28 62.4128 246.064 60.4128 246.064C58.4128 246.064 56.8608 247.232 56.5568 249.392L57.9968 249.632C57.9968 248.288 58.9888 247.328 60.3328 247.328C61.5488 247.328 62.4448 247.984 62.4928 249.392C62.4928 250.768 61.5968 251.776 60.3648 253.088L56.3168 256.976V258H64.1888V256.704ZM73.816 246.272H66.104V247.52H72.232L71.688 248.416L66.904 258H68.52L73.816 247.216V246.272Z" fill="black"/>
<path d="M192.189 224.704H187.565C187.165 224.704 186.685 224.768 186.237 224.896L189.517 221.648C190.845 220.32 191.965 219.104 191.965 217.36C191.965 215.28 190.413 214.064 188.413 214.064C186.413 214.064 184.861 215.232 184.557 217.392L185.997 217.632C185.997 216.288 186.989 215.328 188.333 215.328C189.549 215.328 190.445 215.984 190.493 217.392C190.493 218.768 189.597 219.776 188.365 221.088L184.317 224.976V226H192.189V224.704ZM194.136 217.424L195.592 217.664C195.592 216.352 196.568 215.36 197.912 215.36C199.144 215.36 200.008 216.016 200.008 217.36C200.008 218.576 199.272 219.424 197.208 219.472V220.528C199.72 220.528 200.248 221.456 200.248 222.72C200.248 223.76 199.432 224.944 197.752 224.944C196.536 224.944 195.816 224.32 195.32 223.296C195.192 222.992 195.112 222.752 195.08 222.576L193.768 223.12C194.328 224.848 195.24 226.208 197.768 226.208C199.96 226.208 201.736 224.832 201.736 222.688C201.736 221.216 200.936 220.24 199.4 219.856C200.68 219.424 201.464 218.656 201.464 217.12C201.464 215.328 200.024 214.08 197.992 214.08C195.992 214.08 194.44 215.296 194.136 217.424Z" fill="black"/>
<path d="M107.189 224.704H102.565C102.165 224.704 101.685 224.768 101.237 224.896L104.517 221.648C105.845 220.32 106.965 219.104 106.965 217.36C106.965 215.28 105.413 214.064 103.413 214.064C101.413 214.064 99.8608 215.232 99.5568 217.392L100.997 217.632C100.997 216.288 101.989 215.328 103.333 215.328C104.549 215.328 105.445 215.984 105.493 217.392C105.493 218.768 104.597 219.776 103.365 221.088L99.3168 224.976V226H107.189V224.704ZM116.416 224.816H114.112V214.208H112.944L109.792 216.928L110.576 217.872L112.704 215.968C112.688 216.08 112.688 216.224 112.688 216.368V224.816H110.08V226H116.416V224.816Z" fill="black"/>
<path d="M107.189 256.704H102.565C102.165 256.704 101.685 256.768 101.237 256.896L104.517 253.648C105.845 252.32 106.965 251.104 106.965 249.36C106.965 247.28 105.413 246.064 103.413 246.064C101.413 246.064 99.8608 247.232 99.5568 249.392L100.997 249.632C100.997 248.288 101.989 247.328 103.333 247.328C104.549 247.328 105.445 247.984 105.493 249.392C105.493 250.768 104.597 251.776 103.365 253.088L99.3168 256.976V258H107.189V256.704ZM114.48 251.888C115.76 251.424 116.4 250.496 116.4 249.136C116.4 247.408 114.912 245.984 112.768 245.984C110.544 245.984 109.136 247.408 109.136 249.136C109.136 250.48 109.808 251.424 111.024 251.888C109.552 252.288 108.704 253.312 108.704 254.848C108.704 256.944 110.368 258.272 112.768 258.272C115.136 258.272 116.8 256.944 116.8 254.848C116.8 253.312 115.968 252.288 114.48 251.888ZM112.768 247.152C114.208 247.152 114.912 248.064 114.912 249.184C114.912 250.256 114.352 251.328 112.768 251.328C111.152 251.328 110.592 250.256 110.592 249.184C110.592 248.064 111.296 247.152 112.768 247.152ZM112.768 257.072C111.168 257.072 110.256 256.176 110.256 254.832C110.256 253.184 111.424 252.496 112.768 252.496C114.096 252.496 115.248 253.184 115.248 254.832C115.248 256.176 114.368 257.072 112.768 257.072Z" fill="black"/>
<path d="M235.189 224.704H230.565C230.165 224.704 229.685 224.768 229.237 224.896L232.517 221.648C233.845 220.32 234.965 219.104 234.965 217.36C234.965 215.28 233.413 214.064 231.413 214.064C229.413 214.064 227.861 215.232 227.557 217.392L228.997 217.632C228.997 216.288 229.989 215.328 231.333 215.328C232.549 215.328 233.445 215.984 233.493 217.392C233.493 218.768 232.597 219.776 231.365 221.088L227.317 224.976V226H235.189V224.704ZM245.28 221.728H243.504V214.144H242.128L236.352 221.792V222.88H242.208V226H243.504V222.88H245.28V221.728ZM242.208 221.728H237.952L242.272 215.84C242.224 216.176 242.208 216.56 242.208 216.832V221.728Z" fill="black"/>
<path d="M279.189 224.704H274.565C274.165 224.704 273.685 224.768 273.237 224.896L276.517 221.648C277.845 220.32 278.965 219.104 278.965 217.36C278.965 215.28 277.413 214.064 275.413 214.064C273.413 214.064 271.861 215.232 271.557 217.392L272.997 217.632C272.997 216.288 273.989 215.328 275.333 215.328C276.549 215.328 277.445 215.984 277.493 217.392C277.493 218.768 276.597 219.776 275.365 221.088L271.317 224.976V226H279.189V224.704ZM283.056 218.64L283.584 215.568H288.176V214.224H282.56L281.6 219.776L282.544 220.048C283.232 219.808 283.84 219.664 284.464 219.664C286.144 219.664 287.136 220.56 287.136 222.096C287.136 223.824 285.968 224.832 284.352 224.832C283.392 224.832 282.464 224.4 281.76 223.808L280.976 224.88C281.696 225.568 282.88 226.144 284.288 226.144C286.672 226.144 288.544 224.512 288.544 222.016C288.544 219.968 287.216 218.432 284.736 218.432C284.16 218.432 283.6 218.496 283.056 218.64Z" fill="black"/>
<path d="M284.514 125.728H282.738V118.144H281.362L275.586 125.792V126.88H281.442V130H282.738V126.88H284.514V125.728ZM281.442 125.728H277.186L281.506 119.84C281.458 120.176 281.442 120.56 281.442 120.832V125.728Z" fill="black"/>
</svg>
